<mxfile host="app.diagrams.net" agent="Mozilla/5.0 (Windows NT 10.0; Win64; x64) AppleWebKit/537.36 (KHTML, like Gecko) Chrome/130.0.0.0 Safari/537.36" version="24.8.6">
  <diagram name="Страница — 1" id="QxjTGqp76RS6byJApsvE">
    <mxGraphModel dx="1034" dy="454" grid="1" gridSize="10" guides="1" tooltips="1" connect="1" arrows="1" fold="1" page="1" pageScale="1" pageWidth="827" pageHeight="1169" math="0" shadow="0">
      <root>
        <mxCell id="0" />
        <mxCell id="1" parent="0" />
        <mxCell id="TFVStVDRe4bstlBgssHh-9" style="edgeStyle=orthogonalEdgeStyle;rounded=0;orthogonalLoop=1;jettySize=auto;html=1;entryX=0.5;entryY=0;entryDx=0;entryDy=0;" edge="1" parent="1" source="TFVStVDRe4bstlBgssHh-1" target="TFVStVDRe4bstlBgssHh-5">
          <mxGeometry relative="1" as="geometry" />
        </mxCell>
        <mxCell id="TFVStVDRe4bstlBgssHh-1" value="Завершение заключительного аудиторного занятия&amp;nbsp;" style="rounded=0;whiteSpace=wrap;html=1;" vertex="1" parent="1">
          <mxGeometry x="165" y="30" width="200" height="60" as="geometry" />
        </mxCell>
        <mxCell id="TFVStVDRe4bstlBgssHh-2" value="1" style="text;html=1;align=center;verticalAlign=middle;resizable=0;points=[];autosize=1;strokeColor=none;fillColor=none;" vertex="1" parent="1">
          <mxGeometry x="205" width="30" height="30" as="geometry" />
        </mxCell>
        <mxCell id="TFVStVDRe4bstlBgssHh-10" style="edgeStyle=orthogonalEdgeStyle;rounded=0;orthogonalLoop=1;jettySize=auto;html=1;" edge="1" parent="1">
          <mxGeometry relative="1" as="geometry">
            <mxPoint x="450" y="160" as="targetPoint" />
            <mxPoint x="360" y="160" as="sourcePoint" />
          </mxGeometry>
        </mxCell>
        <mxCell id="TFVStVDRe4bstlBgssHh-16" value="" style="edgeStyle=orthogonalEdgeStyle;rounded=0;orthogonalLoop=1;jettySize=auto;html=1;" edge="1" parent="1" source="TFVStVDRe4bstlBgssHh-5" target="TFVStVDRe4bstlBgssHh-15">
          <mxGeometry relative="1" as="geometry" />
        </mxCell>
        <mxCell id="TFVStVDRe4bstlBgssHh-5" value="Сбор учебных материалов&amp;nbsp;" style="rounded=1;whiteSpace=wrap;html=1;" vertex="1" parent="1">
          <mxGeometry x="180" y="140" width="170" height="40" as="geometry" />
        </mxCell>
        <mxCell id="TFVStVDRe4bstlBgssHh-14" value="" style="edgeStyle=orthogonalEdgeStyle;rounded=0;orthogonalLoop=1;jettySize=auto;html=1;" edge="1" parent="1" source="TFVStVDRe4bstlBgssHh-11" target="TFVStVDRe4bstlBgssHh-13">
          <mxGeometry relative="1" as="geometry" />
        </mxCell>
        <mxCell id="TFVStVDRe4bstlBgssHh-11" value="Проверка личных вещей&amp;nbsp;" style="rounded=1;whiteSpace=wrap;html=1;" vertex="1" parent="1">
          <mxGeometry x="450" y="140" width="160" height="40" as="geometry" />
        </mxCell>
        <mxCell id="TFVStVDRe4bstlBgssHh-12" value="Да" style="text;html=1;align=center;verticalAlign=middle;resizable=0;points=[];autosize=1;strokeColor=none;fillColor=none;" vertex="1" parent="1">
          <mxGeometry x="370" y="118" width="40" height="30" as="geometry" />
        </mxCell>
        <mxCell id="TFVStVDRe4bstlBgssHh-13" value="Оставление учебных материалов&amp;nbsp;" style="rounded=1;whiteSpace=wrap;html=1;" vertex="1" parent="1">
          <mxGeometry x="660" y="140" width="160" height="40" as="geometry" />
        </mxCell>
        <mxCell id="TFVStVDRe4bstlBgssHh-19" value="" style="edgeStyle=orthogonalEdgeStyle;rounded=0;orthogonalLoop=1;jettySize=auto;html=1;" edge="1" parent="1" source="TFVStVDRe4bstlBgssHh-15" target="TFVStVDRe4bstlBgssHh-18">
          <mxGeometry relative="1" as="geometry" />
        </mxCell>
        <mxCell id="TFVStVDRe4bstlBgssHh-24" value="" style="edgeStyle=orthogonalEdgeStyle;rounded=0;orthogonalLoop=1;jettySize=auto;html=1;" edge="1" parent="1" source="TFVStVDRe4bstlBgssHh-15" target="TFVStVDRe4bstlBgssHh-23">
          <mxGeometry relative="1" as="geometry" />
        </mxCell>
        <mxCell id="TFVStVDRe4bstlBgssHh-15" value="Переход к месту подготовки&amp;nbsp;" style="rounded=0;whiteSpace=wrap;html=1;" vertex="1" parent="1">
          <mxGeometry x="170" y="250" width="190" height="60" as="geometry" />
        </mxCell>
        <mxCell id="TFVStVDRe4bstlBgssHh-17" value="2" style="text;html=1;align=center;verticalAlign=middle;resizable=0;points=[];autosize=1;strokeColor=none;fillColor=none;" vertex="1" parent="1">
          <mxGeometry x="205" y="228" width="30" height="30" as="geometry" />
        </mxCell>
        <mxCell id="TFVStVDRe4bstlBgssHh-21" value="" style="edgeStyle=orthogonalEdgeStyle;rounded=0;orthogonalLoop=1;jettySize=auto;html=1;" edge="1" parent="1" source="TFVStVDRe4bstlBgssHh-18" target="TFVStVDRe4bstlBgssHh-20">
          <mxGeometry relative="1" as="geometry" />
        </mxCell>
        <mxCell id="TFVStVDRe4bstlBgssHh-18" value="Определение маршрута&amp;nbsp;" style="rounded=1;whiteSpace=wrap;html=1;" vertex="1" parent="1">
          <mxGeometry x="434" y="260" width="176" height="40" as="geometry" />
        </mxCell>
        <mxCell id="TFVStVDRe4bstlBgssHh-20" value="Удобная одежда&amp;nbsp;" style="rounded=1;whiteSpace=wrap;html=1;" vertex="1" parent="1">
          <mxGeometry x="660" y="259" width="160" height="42" as="geometry" />
        </mxCell>
        <mxCell id="TFVStVDRe4bstlBgssHh-22" value="Да" style="text;html=1;align=center;verticalAlign=middle;resizable=0;points=[];autosize=1;strokeColor=none;fillColor=none;" vertex="1" parent="1">
          <mxGeometry x="370" y="248" width="40" height="30" as="geometry" />
        </mxCell>
        <mxCell id="TFVStVDRe4bstlBgssHh-27" value="" style="edgeStyle=orthogonalEdgeStyle;rounded=0;orthogonalLoop=1;jettySize=auto;html=1;" edge="1" parent="1" source="TFVStVDRe4bstlBgssHh-23" target="TFVStVDRe4bstlBgssHh-26">
          <mxGeometry relative="1" as="geometry" />
        </mxCell>
        <mxCell id="TFVStVDRe4bstlBgssHh-33" value="" style="edgeStyle=orthogonalEdgeStyle;rounded=0;orthogonalLoop=1;jettySize=auto;html=1;" edge="1" parent="1" source="TFVStVDRe4bstlBgssHh-23" target="TFVStVDRe4bstlBgssHh-32">
          <mxGeometry relative="1" as="geometry" />
        </mxCell>
        <mxCell id="TFVStVDRe4bstlBgssHh-23" value="Подготовка к тренировке&amp;nbsp;" style="rounded=0;whiteSpace=wrap;html=1;" vertex="1" parent="1">
          <mxGeometry x="155" y="390" width="220" height="60" as="geometry" />
        </mxCell>
        <mxCell id="TFVStVDRe4bstlBgssHh-25" value="3" style="text;html=1;align=center;verticalAlign=middle;resizable=0;points=[];autosize=1;strokeColor=none;fillColor=none;" vertex="1" parent="1">
          <mxGeometry x="205" y="360" width="30" height="30" as="geometry" />
        </mxCell>
        <mxCell id="TFVStVDRe4bstlBgssHh-29" value="" style="edgeStyle=orthogonalEdgeStyle;rounded=0;orthogonalLoop=1;jettySize=auto;html=1;" edge="1" parent="1" source="TFVStVDRe4bstlBgssHh-26" target="TFVStVDRe4bstlBgssHh-28">
          <mxGeometry relative="1" as="geometry" />
        </mxCell>
        <mxCell id="TFVStVDRe4bstlBgssHh-26" value="Разогрев&amp;nbsp;" style="rounded=1;whiteSpace=wrap;html=1;" vertex="1" parent="1">
          <mxGeometry x="442" y="400" width="176" height="40" as="geometry" />
        </mxCell>
        <mxCell id="TFVStVDRe4bstlBgssHh-31" value="" style="edgeStyle=orthogonalEdgeStyle;rounded=0;orthogonalLoop=1;jettySize=auto;html=1;" edge="1" parent="1" source="TFVStVDRe4bstlBgssHh-28" target="TFVStVDRe4bstlBgssHh-30">
          <mxGeometry relative="1" as="geometry" />
        </mxCell>
        <mxCell id="TFVStVDRe4bstlBgssHh-28" value="Гидратация&amp;nbsp;" style="rounded=1;whiteSpace=wrap;html=1;" vertex="1" parent="1">
          <mxGeometry x="667" y="400" width="160" height="40" as="geometry" />
        </mxCell>
        <mxCell id="TFVStVDRe4bstlBgssHh-30" value="Настроение&amp;nbsp;" style="rounded=1;whiteSpace=wrap;html=1;" vertex="1" parent="1">
          <mxGeometry x="668.5" y="490" width="157" height="40" as="geometry" />
        </mxCell>
        <mxCell id="TFVStVDRe4bstlBgssHh-36" value="" style="edgeStyle=orthogonalEdgeStyle;rounded=0;orthogonalLoop=1;jettySize=auto;html=1;" edge="1" parent="1" source="TFVStVDRe4bstlBgssHh-32" target="TFVStVDRe4bstlBgssHh-35">
          <mxGeometry relative="1" as="geometry" />
        </mxCell>
        <mxCell id="TFVStVDRe4bstlBgssHh-32" value="Явка на построение&amp;nbsp;" style="rounded=0;whiteSpace=wrap;html=1;" vertex="1" parent="1">
          <mxGeometry x="160" y="525" width="210" height="60" as="geometry" />
        </mxCell>
        <mxCell id="TFVStVDRe4bstlBgssHh-34" value="Да" style="text;html=1;align=center;verticalAlign=middle;resizable=0;points=[];autosize=1;strokeColor=none;fillColor=none;" vertex="1" parent="1">
          <mxGeometry x="380" y="388" width="40" height="30" as="geometry" />
        </mxCell>
        <mxCell id="TFVStVDRe4bstlBgssHh-39" value="" style="edgeStyle=orthogonalEdgeStyle;rounded=0;orthogonalLoop=1;jettySize=auto;html=1;" edge="1" parent="1" source="TFVStVDRe4bstlBgssHh-35" target="TFVStVDRe4bstlBgssHh-38">
          <mxGeometry relative="1" as="geometry" />
        </mxCell>
        <mxCell id="TFVStVDRe4bstlBgssHh-35" value="Сбор в назначенное время&amp;nbsp;" style="rounded=1;whiteSpace=wrap;html=1;" vertex="1" parent="1">
          <mxGeometry x="442" y="535" width="160" height="40" as="geometry" />
        </mxCell>
        <mxCell id="TFVStVDRe4bstlBgssHh-37" value="Да" style="text;html=1;align=center;verticalAlign=middle;resizable=0;points=[];autosize=1;strokeColor=none;fillColor=none;" vertex="1" parent="1">
          <mxGeometry x="380" y="518" width="40" height="30" as="geometry" />
        </mxCell>
        <mxCell id="TFVStVDRe4bstlBgssHh-38" value="Готовность к тренировке&amp;nbsp;" style="rounded=1;whiteSpace=wrap;html=1;" vertex="1" parent="1">
          <mxGeometry x="442" y="640" width="160" height="40" as="geometry" />
        </mxCell>
      </root>
    </mxGraphModel>
  </diagram>
</mxfile>
